PathFileType	4	(X/Y/Z)	Patient4_TMGait_0pt6_01_right_15.trc.trc
DataRate	CameraRate	NumFrames	NumMarkers	Units	OrigDataRate	OrigDataStartFrame	OrigNumFrames
80.000000000000	80.000000000000	4	33	mm	80.000000000000	53	       141
Frame#	Time	Sacral			L.Shoulder			Chest			R.Shoulder			Neck			R.ASIS			L.ASIS			R.Thigh.Superior			R.Thigh.Lateral			R.Thigh.Inferior			R.Patella			L.Thigh.Superior			L.Thigh.Lateral			L.Thigh.Inferior			L.Patella			L.Shank.Superior			L.Shank.Lateral			L.Shank.Inferior			R.Shank.Superior			R.Shank.Lateral			R.Shank.Inferior			R.Heel			R.Midfoot.Superior			R.Midfoot.Lateral			R.Toe			L.Heel			L.Midfoot.Lateral			L.Midfoot.Superior			L.Toe			L.Elbow			L.Wrist			R.Elbow			R.Wrist			
		X1	Y1	Z1	X2	Y2	Z2	X3	Y3	Z3	X4	Y4	Z4	X5	Y5	Z5	X6	Y6	Z6	X7	Y7	Z7	X8	Y8	Z8	X9	Y9	Z9	X10	Y10	Z10	X11	Y11	Z11	X12	Y12	Z12	X13	Y13	Z13	X14	Y14	Z14	X15	Y15	Z15	X16	Y16	Z16	X17	Y17	Z17	X18	Y18	Z18	X19	Y19	Z19	X20	Y20	Z20	X21	Y21	Z21	X22	Y22	Z22	X23	Y23	Z23	X24	Y24	Z24	X25	Y25	Z25	X26	Y26	Z26	X27	Y27	Z27	X28	Y28	Z28	X29	Y29	Z29	X30	Y30	Z30	X31	Y31	Z31	X32	Y32	Z32	X33	Y33	Z33	

53	18.270000000000	637.135781795496	1010.045051423434	517.791396123287	786.150859165965	1443.787909195474	337.083415395417	910.546824849411	1367.956797235580	478.905250549980	854.324497616918	1432.509301624618	665.482110663618	793.569421836856	1498.346572728920	493.577136677816	873.996222240477	944.367686858897	610.679476038899	834.115958852499	968.622917859190	339.593346398289	895.791656718619	739.209457763536	576.779068646413	808.279542754139	633.106350751052	637.382252134362	876.089424601150	579.393341819312	553.677814114531	868.889930596805	492.977772839211	557.564190205906	920.728925872982	787.970673588814	361.063160354359	875.189240414162	660.655784283853	282.221057841507	981.882266800091	601.884945191361	337.389514617059	1006.991500580920	527.589995228162	327.430908082617	974.962531980057	452.192129488092	319.353208112064	876.640380822489	343.091759310642	272.493556262447	939.532613030058	225.809054179488	322.851776975009	839.504990762897	404.087516710095	559.982689546478	765.147515705644	298.830066749266	615.595892477411	807.230640384801	206.810415809127	547.301326144838	670.979452914396	42.149914030755	506.354918436834	843.706425133608	96.662683791327	542.491298189383	754.743440478770	36.024913751958	580.384593923259	962.401303133390	44.836698548440	568.693239696924	820.407517813080	63.174096560610	365.388714808890	885.554806651430	63.969176477083	278.227725774322	969.749233914265	128.169719716434	295.821989872111	1093.254128580379	81.666740845937	252.687627321303	721.187075713910	1092.746305862609	223.057441902960	750.326878632042	835.218486780011	208.680760152045	944.711296211688	1094.988801382197	778.698979496796	1169.974342683978	966.628327512211	755.883899256833	
54	18.282500000000	636.280623762437	1010.046431890723	518.170020711053	785.223836987185	1443.760533603115	337.485368707571	909.954422701281	1367.558966571507	478.820050863377	854.434851296437	1431.961066275608	665.617577833128	793.202974160379	1498.089913569477	494.022795055241	873.082932410386	944.031538849205	610.620181963783	832.973129233014	968.268522548184	339.521256578117	892.642685844106	738.361865949935	576.845863522404	803.853192909296	632.976660160000	637.601502712624	870.657436281806	578.673372138166	553.883016739501	862.570983067663	492.630168013547	557.646641435263	918.493505093555	787.093132354547	361.322086408008	872.976937210054	660.192186021289	281.664599436494	979.030394805745	601.140178509152	337.867949222078	1005.314863014947	529.212445489899	328.159484552055	977.271049544080	454.411627275487	319.336109405816	886.630267808779	339.934489309975	270.248537379734	955.848235525937	226.225422444384	321.035731984601	832.837038958043	403.775768475970	559.972897211895	758.306057165595	298.716240634924	615.623501313020	800.084756445863	206.634749693895	547.256297243950	663.447658998978	42.114074234090	506.287145040225	836.121176676284	96.569614477714	542.347119972392	747.195259405269	36.018714391342	580.274438274056	954.852571376634	44.743794628424	568.719859344240	845.482993350876	57.634775404470	360.929177887122	912.857652150988	60.842838610704	275.491552423795	993.419956146045	129.118785562560	294.505010974121	1120.087790317974	88.104714444655	255.090221571933	711.972877400259	1094.551458911820	224.007159899852	731.801011882518	836.359094263014	209.541730282595	951.955287278696	1096.639399995495	777.519946260939	1183.631486408853	981.307567874942	751.507975429083	
55	18.295000000000	635.590922550882	1009.980499220621	518.418109994087	784.429381171580	1443.703812635798	337.740597318918	909.418035095224	1367.145263035341	478.664338507617	854.457888653862	1431.388951360082	665.640980954621	792.861487647625	1497.803750130788	494.315089528047	872.230949025019	943.640376911127	610.514153418782	831.936699929202	967.814062357296	339.384835788400	889.529249287137	737.434823088220	576.941988777178	799.385844502325	632.840398937990	637.738097421835	865.231580495179	577.925300641685	554.048485777210	856.229971814065	492.241294391921	557.641439231793	916.130137745541	785.867975024286	361.493792933350	870.401312989609	659.463198785616	281.059580426361	975.903581824679	600.052522117341	338.189624308444	1003.188595787159	530.457727549575	328.933744142638	978.946009621984	456.490183076054	319.430826729046	895.968176308543	337.256348990967	268.270694680342	971.016993514107	227.390181808259	319.613545004079	826.129449782142	403.482160110592	559.910931267230	751.437781487920	298.633386760615	615.631067641887	792.909338124710	206.479052884080	547.197929725150	655.905506247846	42.087582679659	506.231025551770	828.542095300614	96.499020946353	542.236817622391	739.641894471433	36.008155773642	580.167356041635	947.302105331100	44.661271861416	568.738344581648	869.168455793087	53.780731072845	357.061032192919	938.778223570420	59.016740071282	273.449199892515	1015.733868277007	130.943474414184	293.738444136958	1145.168456848143	95.031007529638	258.346563413449	703.108052599957	1096.504309205238	224.911056842706	714.148177892934	837.973111885332	210.653183474902	958.678729653872	1098.262064689045	776.044317843500	1195.947862614377	996.303818419588	746.796271595951	
56	18.307500000000	635.060767857873	1009.872707332630	518.542147698724	783.756126641502	1443.631016348828	337.850902344984	908.939772411230	1366.740263895565	478.433601791297	854.408305872678	1430.827734093540	665.548409944775	792.546360287573	1497.509260388123	494.448715888661	871.444051728446	943.206202207036	610.351159311525	830.992948743069	967.302479778773	339.175736857654	886.457713373458	736.451470540553	577.014532998299	794.916470385292	632.713732840984	637.784484606126	859.846652467112	577.164419234229	554.153217945127	849.909602036031	491.816342264296	557.552236423647	913.725393508612	784.422803593158	361.565096761083	867.582868679425	658.534879067067	280.459179279951	972.668955369685	598.750714756415	338.343405021983	1000.768571579095	531.394260963553	329.704258585338	980.057343654687	458.413070924602	319.598723935956	904.452771935619	335.053768039915	266.694676324172	984.830377080602	229.166139838317	318.598324596013	819.425359551730	403.216872063775	559.807117653607	744.560571847773	298.600518703928	615.623167071415	785.717397019875	206.352064718109	547.135440346963	648.353692737505	42.080002349647	506.192136587876	820.981966999911	96.461479447092	542.181406542783	732.084994997757	35.995679711710	580.071263474741	939.752186335805	44.585637991323	568.749302845430	891.091976915939	51.449347398730	354.009322679099	962.801317016153	58.315914983054	272.180520828903	1036.301464579812	133.467046378096	293.467924809539	1168.075287880122	102.196873082657	262.104112486483	694.660414145150	1098.579396701223	225.772897829275	697.444263825145	839.978461797546	211.990713777313	964.866833623427	1099.858534787151	774.291217300164	1206.871603293391	1011.527644145342	741.788611967723	
